<?xml version="1.0" encoding="UTF-8" standalone="no"?>
<!-- Created with Inkscape (http://www.inkscape.org/) -->

<svg
   xmlns:dc="http://purl.org/dc/elements/1.1/"
   xmlns:cc="http://creativecommons.org/ns#"
   xmlns:rdf="http://www.w3.org/1999/02/22-rdf-syntax-ns#"
   xmlns:svg="http://www.w3.org/2000/svg"
   xmlns="http://www.w3.org/2000/svg"
   xmlns:sodipodi="http://sodipodi.sourceforge.net/DTD/sodipodi-0.dtd"
   xmlns:inkscape="http://www.inkscape.org/namespaces/inkscape"
   width="744.09448"
   height="1052.3622"
   id="svg3442"
   version="1.1"
   inkscape:version="0.91 r13725"
   viewBox="0 0 744.09448 1052.3622"
   sodipodi:docname="logo.svg"
   inkscape:export-filename="/home/gram/projects/personal/django-bf-protection/logo.png"
   inkscape:export-xdpi="90"
   inkscape:export-ydpi="90">
  <defs
     id="defs3444" />
  <sodipodi:namedview
     id="base"
     pagecolor="#ffffff"
     bordercolor="#ffffff"
     borderopacity="0.0"
     inkscape:pageopacity="0.0"
     inkscape:pageshadow="0"
     inkscape:zoom="0.24748737"
     inkscape:cx="71.017093"
     inkscape:cy="1328.0384"
     inkscape:document-units="px"
     inkscape:current-layer="layer1"
     showgrid="true"
     inkscape:snap-bbox="true"
     inkscape:bbox-paths="true"
     inkscape:bbox-nodes="true"
     inkscape:snap-bbox-edge-midpoints="true"
     inkscape:snap-bbox-midpoints="true"
     inkscape:window-width="1920"
     inkscape:window-height="994"
     inkscape:window-x="0"
     inkscape:window-y="26"
     inkscape:window-maximized="1">
    <inkscape:grid
       type="xygrid"
       id="grid3693" />
  </sodipodi:namedview>
  <metadata
     id="metadata3447">
    <rdf:RDF>
      <cc:Work
         rdf:about="">
        <dc:format>image/svg+xml</dc:format>
        <dc:type
           rdf:resource="http://purl.org/dc/dcmitype/StillImage" />
        <dc:title></dc:title>
      </cc:Work>
    </rdf:RDF>
  </metadata>
  <g
     inkscape:label="Layer 1"
     inkscape:groupmode="layer"
     id="layer1">
    <g
       id="g3716"
       transform="matrix(0.90909091,0,0,1,-50.909091,2.6171874e-6)"
       style="fill:#800000">
      <path
         inkscape:connector-curvature="0"
         style="fill:#800000"
         d="m -570.73187,532.36218 -418.53626,0 c -5.92625,0 -10.73187,4.77565 -10.73187,10.66683 l 0,138.66633 c 0,5.89119 4.80562,10.66684 10.73187,10.66684 l 418.53626,0 c 5.92625,0 10.73187,-4.77565 10.73187,-10.66684 l 0,-138.66633 c 0,-5.89118 -4.80562,-10.66683 -10.73187,-10.66683 z m -10.73188,138.66632 -397.0725,0 0,-117.33265 397.07336,0 0,117.33265 z"
         id="path3609" />
      <path
         inkscape:connector-curvature="0"
         style="fill:#800000"
         d="m -855.28469,633.69543 c 1.9886,3.42179 5.59453,5.33427 9.30446,5.33427 1.82015,0 3.66609,-0.4604 5.35476,-1.43073 l 11.78375,-6.76244 0,13.52573 c 0,5.89119 4.80563,10.66684 10.73188,10.66684 5.92625,0 10.73187,-4.77565 10.73187,-10.66684 l 0,-13.52573 11.78461,6.76244 c 1.69039,0.96948 3.53461,1.43073 5.35477,1.43073 3.70906,0 7.31672,-1.91248 9.30445,-5.33427 2.96398,-5.10194 1.20484,-11.62522 -3.9282,-14.57038 l -11.78375,-6.76244 11.78461,-6.76244 c 5.13304,-2.94517 6.89218,-9.46845 3.9282,-14.57039 -2.96313,-5.09937 -9.52617,-6.84871 -14.65922,-3.90439 l -11.78461,6.76244 0,-13.52574 c 0,-5.89119 -4.80562,-10.66684 -10.73187,-10.66684 -5.92625,0 -10.73188,4.77565 -10.73188,10.66684 l 0,13.52403 -11.78375,-6.76244 c -5.13476,-2.94517 -11.69609,-1.19669 -14.65922,3.9044 -2.96398,5.10194 -1.20484,11.62521 3.9282,14.57038 l 11.78461,6.76244 -11.78461,6.76244 c -5.13476,2.94687 -6.8939,9.47015 -3.92906,14.57209 z"
         id="path3611" />
      <path
         inkscape:connector-curvature="0"
         style="fill:#800000"
         d="m -756.59406,633.69543 c 1.98859,3.42179 5.59453,5.33427 9.30445,5.33427 1.82016,0 3.66609,-0.4604 5.35477,-1.43073 l 11.78375,-6.76244 0,13.52573 c 0,5.89119 4.80562,10.66684 10.73187,10.66684 5.92625,0 10.73188,-4.77565 10.73188,-10.66684 l 0,-13.52573 11.78375,6.76244 c 1.69039,0.96948 3.53461,1.43073 5.35476,1.43073 3.70906,0 7.31586,-1.91248 9.30446,-5.33427 2.96398,-5.10194 1.20484,-11.62522 -3.92821,-14.57038 l -11.78375,-6.76244 11.78461,-6.76244 c 5.13305,-2.94517 6.89219,-9.46845 3.9282,-14.57039 -2.96312,-5.10194 -9.52617,-6.84871 -14.65921,-3.90439 l -11.78375,6.76244 0,-13.52574 c 0,-5.89119 -4.80563,-10.66684 -10.73188,-10.66684 -5.92625,0 -10.73187,4.77565 -10.73187,10.66684 l 0,13.52574 -11.78375,-6.76244 c -5.13391,-2.94517 -11.69438,-1.19669 -14.65922,3.90439 -2.96399,5.10194 -1.20485,11.62522 3.9282,14.57039 l 11.78461,6.76244 -11.78461,6.76244 c -5.13391,2.94516 -6.89305,9.46844 -3.92906,14.57038 z"
         id="path3613" />
      <path
         inkscape:connector-curvature="0"
         style="fill:#800000"
         d="m -953.97531,633.69543 c 1.98859,3.42179 5.59453,5.33427 9.30445,5.33427 1.82016,0 3.66609,-0.4604 5.35477,-1.43073 l 11.78375,-6.76244 0,13.52573 c 0,5.89119 4.80562,10.66684 10.73187,10.66684 5.92625,0 10.73188,-4.77565 10.73188,-10.66684 l 0,-13.52573 11.78375,6.76244 c 1.69039,0.96948 3.53461,1.43073 5.35476,1.43073 3.70906,0 7.31586,-1.91248 9.30445,-5.33427 2.96399,-5.10194 1.20485,-11.62522 -3.9282,-14.57038 l -11.78375,-6.76244 11.78461,-6.76244 c 5.13305,-2.94517 6.89219,-9.46845 3.9282,-14.57039 -2.96312,-5.10194 -9.52617,-6.84871 -14.65921,-3.90439 l -11.78375,6.76244 0,-13.52574 c 0,-5.89119 -4.80563,-10.66684 -10.73188,-10.66684 -5.92625,0 -10.73187,4.77565 -10.73187,10.66684 l 0,13.52574 -11.78375,-6.76244 c -5.13391,-2.94517 -11.69524,-1.19669 -14.65922,3.90439 -2.96399,5.10194 -1.20485,11.62522 3.9282,14.57039 l 11.78375,6.76244 -11.78461,6.76244 c -5.13305,2.94516 -6.89219,9.46844 -3.9282,14.57038 z"
         id="path3615" />
      <path
         inkscape:connector-curvature="0"
         style="fill:#800000"
         d="m -653.36594,655.0291 44.53625,0 c 5.92625,0 10.73188,-4.77565 10.73188,-10.66684 0,-5.89119 -4.80563,-10.66683 -10.73188,-10.66683 l -44.53625,0 c -5.92625,0 -10.73187,4.77564 -10.73187,10.66683 0,5.89119 4.80562,10.66684 10.73187,10.66684 z"
         id="path3617" />
    </g>
    <g
       id="g3619"
       transform="matrix(0.859375,0,0,0.85416701,-1000,255.02867)" />
    <g
       id="g3621"
       transform="matrix(0.859375,0,0,0.85416701,-1000,255.02867)" />
    <g
       id="g3623"
       transform="matrix(0.859375,0,0,0.85416701,-1000,255.02867)" />
    <g
       id="g3625"
       transform="matrix(0.859375,0,0,0.85416701,-1000,255.02867)" />
    <g
       id="g3627"
       transform="matrix(0.859375,0,0,0.85416701,-1000,255.02867)" />
    <g
       id="g3629"
       transform="matrix(0.859375,0,0,0.85416701,-1000,255.02867)" />
    <g
       id="g3631"
       transform="matrix(0.859375,0,0,0.85416701,-1000,255.02867)" />
    <g
       id="g3633"
       transform="matrix(0.859375,0,0,0.85416701,-1000,255.02867)" />
    <g
       id="g3635"
       transform="matrix(0.859375,0,0,0.85416701,-1000,255.02867)" />
    <g
       id="g3637"
       transform="matrix(0.859375,0,0,0.85416701,-1000,255.02867)" />
    <g
       id="g3639"
       transform="matrix(0.859375,0,0,0.85416701,-1000,255.02867)" />
    <g
       id="g3641"
       transform="matrix(0.859375,0,0,0.85416701,-1000,255.02867)" />
    <g
       id="g3643"
       transform="matrix(0.859375,0,0,0.85416701,-1000,255.02867)" />
    <g
       id="g3645"
       transform="matrix(0.859375,0,0,0.85416701,-1000,255.02867)" />
    <g
       id="g3647"
       transform="matrix(0.859375,0,0,0.85416701,-1000,255.02867)" />
    <g
       id="g3499"
       transform="matrix(0.96465033,0,0,1.0156235,-1006.9495,-27.638071)"
       style="fill:#800000">
      <g
         id="g3451"
         style="fill:#800000">
        <g
           id="g3453"
           style="fill:#800000">
          <path
             id="path3455"
             d="M 442.434,52.012 275.781,2.863 c -12.938,-3.817 -26.621,-3.817 -39.563,0 L 69.567,52.011 C 57.263,55.639 48.67,67.131 48.67,79.959 l 0,138.014 c 0,63.872 19.013,125.375 54.984,177.86 35.118,51.243 83.991,90.665 141.33,114 3.552,1.445 7.284,2.168 11.016,2.168 3.732,0 7.464,-0.724 11.015,-2.168 57.339,-23.335 106.212,-62.755 141.33,-114 35.97,-52.486 54.983,-113.988 54.983,-177.86 l 0,-138.013 C 463.33,67.132 454.737,55.639 442.434,52.012 Z m -2.414,165.96 c 0,59.147 -17.602,116.093 -50.901,164.681 -32.53,47.466 -77.79,83.978 -130.889,105.587 -1.438,0.585 -3.021,0.585 -4.459,0 C 200.672,466.631 155.411,430.12 122.882,382.653 89.583,334.065 71.981,277.12 71.981,217.972 l 0,-138.013 c 0,-2.565 1.719,-4.863 4.18,-5.589 L 242.813,25.221 c 4.314,-1.273 8.751,-1.908 13.188,-1.908 4.436,0 8.873,0.636 13.187,1.909 L 435.842,74.37 c 2.459,0.725 4.178,3.023 4.178,5.589 l 0,138.013 z"
             inkscape:connector-curvature="0"
             style="fill:#800000" />
        </g>
      </g>
      <g
         id="g3457"
         style="fill:#800000">
        <g
           id="g3459"
           style="fill:#800000">
          <path
             id="path3461"
             d="M 385.15,103.555 260.944,66.925 c -3.234,-0.953 -6.652,-0.955 -9.888,0 l -124.203,36.63 c -7.382,2.178 -12.539,9.074 -12.539,16.77 l 0,97.647 c 0,51.598 15.608,101.088 45.134,143.122 22.892,32.593 53.481,59.502 88.458,77.82 2.534,1.328 5.314,1.991 8.095,1.991 2.78,0 5.56,-0.663 8.095,-1.991 34.976,-18.317 65.565,-45.228 88.458,-77.82 29.526,-42.033 45.134,-91.524 45.134,-143.122 l 0,-97.647 c -10e-4,-7.698 -5.157,-14.593 -12.538,-16.77 z m -10.772,114.417 c 0,46.777 -14.142,91.635 -40.897,129.723 -20.172,28.717 -46.912,52.562 -77.48,69.12 -30.568,-16.559 -57.309,-40.403 -77.48,-69.12 -26.755,-38.088 -40.897,-82.946 -40.897,-129.723 l 0,-93.29 118.377,-34.912 118.377,34.912 0,93.29 z"
             inkscape:connector-curvature="0"
             style="fill:#800000" />
        </g>
      </g>
      <g
         id="g3463"
         style="fill:#800000" />
      <g
         id="g3465"
         style="fill:#800000" />
      <g
         id="g3467"
         style="fill:#800000" />
      <g
         id="g3469"
         style="fill:#800000" />
      <g
         id="g3471"
         style="fill:#800000" />
      <g
         id="g3473"
         style="fill:#800000" />
      <g
         id="g3475"
         style="fill:#800000" />
      <g
         id="g3477"
         style="fill:#800000" />
      <g
         id="g3479"
         style="fill:#800000" />
      <g
         id="g3481"
         style="fill:#800000" />
      <g
         id="g3483"
         style="fill:#800000" />
      <g
         id="g3485"
         style="fill:#800000" />
      <g
         id="g3487"
         style="fill:#800000" />
      <g
         id="g3489"
         style="fill:#800000" />
      <g
         id="g3491"
         style="fill:#800000" />
    </g>
    <text
       xml:space="preserve"
       style="font-style:normal;font-variant:normal;font-weight:normal;font-stretch:normal;font-size:172.34060669px;line-height:125%;font-family:BravoRG;-inkscape-font-specification:BravoRG;letter-spacing:0px;word-spacing:0px;fill:#000000;fill-opacity:1;stroke:none;stroke-width:1px;stroke-linecap:butt;stroke-linejoin:miter;stroke-opacity:1"
       x="-496.92523"
       y="514.01947"
       id="text3723"
       sodipodi:linespacing="125%"
       transform="scale(1.0439864,0.95786685)"><tspan
         sodipodi:role="line"
         id="tspan3725"
         x="-496.92523"
         y="514.01947"
         style="font-style:normal;font-variant:normal;font-weight:normal;font-stretch:normal;font-size:775.53277588px;font-family:BravoRG;-inkscape-font-specification:BravoRG">DjBrut</tspan></text>
  </g>
</svg>
